<?xml version="1.0" encoding="UTF-8" standalone="no"?>
<!DOCTYPE svg PUBLIC "-//W3C//DTD SVG 1.1//EN"
 "http://www.w3.org/Graphics/SVG/1.1/DTD/svg11.dtd">
<!-- Generated by graphviz version 14.1.4 (20260321.0153)
 -->
<!-- Title: uart Pages: 1 -->
<svg width="1487pt" height="408pt"
 viewBox="0.00 0.00 1487.00 408.00" xmlns="http://www.w3.org/2000/svg" xmlns:xlink="http://www.w3.org/1999/xlink">
<g id="graph0" class="graph" transform="scale(1 1) rotate(0) translate(4 404.06)">
<title>uart</title>
<polygon fill="white" stroke="none" points="-4,4 -4,-404.06 1483.36,-404.06 1483.36,4 -4,4"/>
<text xml:space="preserve" text-anchor="middle" x="739.68" y="-7.2" font-family="Times,serif" font-size="14.00">uart</text>
<!-- n1 -->
<g id="node1" class="node">
<title>n1</title>
<polygon fill="none" stroke="black" points="1125.06,-266.6 1125.06,-281.51 1107.1,-292.06 1081.71,-292.06 1063.75,-281.51 1063.75,-266.6 1081.71,-256.06 1107.1,-256.06 1125.06,-266.6"/>
<text xml:space="preserve" text-anchor="middle" x="1094.41" y="-269.01" font-family="Times,serif" font-size="14.00">busy</text>
</g>
<!-- n2 -->
<g id="node2" class="node">
<title>n2</title>
<polygon fill="none" stroke="black" points="54,-269.6 54,-284.51 38.18,-295.06 15.82,-295.06 0,-284.51 0,-269.6 15.82,-259.06 38.18,-259.06 54,-269.6"/>
<text xml:space="preserve" text-anchor="middle" x="27" y="-272.01" font-family="Times,serif" font-size="14.00">clk</text>
</g>
<!-- c13 -->
<g id="node12" class="node">
<title>c13</title>
<polygon fill="none" stroke="black" points="90.38,-152.56 90.38,-201.56 595.88,-201.56 595.88,-152.56 90.38,-152.56"/>
<text xml:space="preserve" text-anchor="middle" x="106.62" y="-184.26" font-family="Times,serif" font-size="14.00">clk</text>
<polyline fill="none" stroke="black" points="90.38,-177.06 122.88,-177.06"/>
<text xml:space="preserve" text-anchor="middle" x="106.62" y="-159.76" font-family="Times,serif" font-size="14.00">rst</text>
<polyline fill="none" stroke="black" points="122.88,-152.56 122.88,-201.56"/>
<text xml:space="preserve" text-anchor="middle" x="324.75" y="-182.13" font-family="Times,serif" font-size="14.00">UUT1</text>
<text xml:space="preserve" text-anchor="middle" x="324.75" y="-165.63" font-family="Times,serif" font-size="14.00">$paramod$9da5c3afe2a58f83191830787238f4d6d8b98d33╲baud_gen</text>
<polyline fill="none" stroke="black" points="526.62,-152.56 526.62,-201.56"/>
<text xml:space="preserve" text-anchor="middle" x="561.25" y="-172.26" font-family="Times,serif" font-size="14.00">baud_tick</text>
</g>
<!-- n2&#45;&gt;c13 -->
<g id="edge4" class="edge">
<title>n2:e&#45;&gt;c13:w</title>
<path fill="none" stroke="black" d="M54,-277.06C91.54,-277.06 57.33,-207.45 79.18,-192.23"/>
<polygon fill="black" stroke="black" points="79.8,-195.68 88.54,-189.7 77.97,-188.93 79.8,-195.68"/>
</g>
<!-- c14 -->
<g id="node13" class="node">
<title>c14</title>
<polygon fill="none" stroke="black" points="90,-220.56 90,-269.56 596.25,-269.56 596.25,-220.56 90,-220.56"/>
<text xml:space="preserve" text-anchor="middle" x="106.25" y="-252.26" font-family="Times,serif" font-size="14.00">clk</text>
<polyline fill="none" stroke="black" points="90,-245.06 122.5,-245.06"/>
<text xml:space="preserve" text-anchor="middle" x="106.25" y="-227.76" font-family="Times,serif" font-size="14.00">rst</text>
<polyline fill="none" stroke="black" points="122.5,-220.56 122.5,-269.56"/>
<text xml:space="preserve" text-anchor="middle" x="324.75" y="-250.13" font-family="Times,serif" font-size="14.00">UUT2</text>
<text xml:space="preserve" text-anchor="middle" x="324.75" y="-233.63" font-family="Times,serif" font-size="14.00">$paramod$39a12da85e615a81e533773b9ada3aec9452923f╲baud_gen</text>
<polyline fill="none" stroke="black" points="527,-220.56 527,-269.56"/>
<text xml:space="preserve" text-anchor="middle" x="561.62" y="-240.26" font-family="Times,serif" font-size="14.00">baud_tick</text>
</g>
<!-- n2&#45;&gt;c14 -->
<g id="edge5" class="edge">
<title>n2:e&#45;&gt;c14:w</title>
<path fill="none" stroke="black" d="M54,-277.06C67.54,-277.06 70.76,-266.18 78.98,-260.57"/>
<polygon fill="black" stroke="black" points="79.95,-263.93 88.55,-257.74 77.97,-257.22 79.95,-263.93"/>
</g>
<!-- c15 -->
<g id="node14" class="node">
<title>c15</title>
<polygon fill="none" stroke="black" points="835.21,-151.81 835.21,-274.31 1014.46,-274.31 1014.46,-151.81 835.21,-151.81"/>
<text xml:space="preserve" text-anchor="middle" x="869.83" y="-257.01" font-family="Times,serif" font-size="14.00">baud_tick</text>
<polyline fill="none" stroke="black" points="835.21,-249.81 904.46,-249.81"/>
<text xml:space="preserve" text-anchor="middle" x="869.83" y="-232.51" font-family="Times,serif" font-size="14.00">clk</text>
<polyline fill="none" stroke="black" points="835.21,-225.31 904.46,-225.31"/>
<text xml:space="preserve" text-anchor="middle" x="869.83" y="-208.01" font-family="Times,serif" font-size="14.00">rst</text>
<polyline fill="none" stroke="black" points="835.21,-200.81 904.46,-200.81"/>
<text xml:space="preserve" text-anchor="middle" x="869.83" y="-183.51" font-family="Times,serif" font-size="14.00">tx_data</text>
<polyline fill="none" stroke="black" points="835.21,-176.31 904.46,-176.31"/>
<text xml:space="preserve" text-anchor="middle" x="869.83" y="-159.01" font-family="Times,serif" font-size="14.00">tx_start</text>
<polyline fill="none" stroke="black" points="904.46,-151.81 904.46,-274.31"/>
<text xml:space="preserve" text-anchor="middle" x="929.71" y="-216.26" font-family="Times,serif" font-size="14.00">UUT3</text>
<text xml:space="preserve" text-anchor="middle" x="929.71" y="-199.76" font-family="Times,serif" font-size="14.00">tx</text>
<polyline fill="none" stroke="black" points="954.96,-151.81 954.96,-274.31"/>
<text xml:space="preserve" text-anchor="middle" x="984.71" y="-249.01" font-family="Times,serif" font-size="14.00">busy</text>
<polyline fill="none" stroke="black" points="954.96,-233.81 1014.46,-233.81"/>
<text xml:space="preserve" text-anchor="middle" x="984.71" y="-208.51" font-family="Times,serif" font-size="14.00">tx</text>
<polyline fill="none" stroke="black" points="954.96,-193.31 1014.46,-193.31"/>
<text xml:space="preserve" text-anchor="middle" x="984.71" y="-167.51" font-family="Times,serif" font-size="14.00">tx_done</text>
</g>
<!-- n2&#45;&gt;c15 -->
<g id="edge6" class="edge">
<title>n2:e&#45;&gt;c15:w</title>
<path fill="none" stroke="black" d="M54,-277.06C70.02,-277.06 73.98,-278.61 90,-279.06 314.91,-285.3 376.15,-325.76 596.25,-279.06 613.38,-275.42 615.38,-267.75 632.25,-263.06 716.07,-239.71 742.08,-237.69 823.85,-237.56"/>
<polygon fill="black" stroke="black" points="823.7,-241.06 833.69,-237.56 823.69,-234.06 823.7,-241.06"/>
</g>
<!-- c17 -->
<g id="node15" class="node">
<title>c17</title>
<polygon fill="none" stroke="black" points="1174.36,-248.06 1174.36,-346.06 1354.36,-346.06 1354.36,-248.06 1174.36,-248.06"/>
<text xml:space="preserve" text-anchor="middle" x="1208.98" y="-328.76" font-family="Times,serif" font-size="14.00">baud_tick</text>
<polyline fill="none" stroke="black" points="1174.36,-321.56 1243.61,-321.56"/>
<text xml:space="preserve" text-anchor="middle" x="1208.98" y="-304.26" font-family="Times,serif" font-size="14.00">clk</text>
<polyline fill="none" stroke="black" points="1174.36,-297.06 1243.61,-297.06"/>
<text xml:space="preserve" text-anchor="middle" x="1208.98" y="-279.76" font-family="Times,serif" font-size="14.00">rst</text>
<polyline fill="none" stroke="black" points="1174.36,-272.56 1243.61,-272.56"/>
<text xml:space="preserve" text-anchor="middle" x="1208.98" y="-255.26" font-family="Times,serif" font-size="14.00">rx</text>
<polyline fill="none" stroke="black" points="1243.61,-248.06 1243.61,-346.06"/>
<text xml:space="preserve" text-anchor="middle" x="1268.86" y="-300.26" font-family="Times,serif" font-size="14.00">UUT4</text>
<text xml:space="preserve" text-anchor="middle" x="1268.86" y="-283.76" font-family="Times,serif" font-size="14.00">rx</text>
<polyline fill="none" stroke="black" points="1294.11,-248.06 1294.11,-346.06"/>
<text xml:space="preserve" text-anchor="middle" x="1324.23" y="-316.76" font-family="Times,serif" font-size="14.00">rx_data</text>
<polyline fill="none" stroke="black" points="1294.11,-297.56 1354.36,-297.56"/>
<text xml:space="preserve" text-anchor="middle" x="1324.23" y="-267.76" font-family="Times,serif" font-size="14.00">rx_done</text>
</g>
<!-- n2&#45;&gt;c17 -->
<g id="edge7" class="edge">
<title>n2:e&#45;&gt;c17:w</title>
<path fill="none" stroke="black" d="M54,-277.06C74,-277.06 71.19,-297.25 90,-304.06 351.42,-398.69 436.71,-336.06 714.73,-336.06 714.73,-336.06 714.73,-336.06 925.83,-336.06 1033.02,-336.06 1061.31,-311.15 1162.95,-309.4"/>
<polygon fill="black" stroke="black" points="1162.87,-312.9 1172.84,-309.32 1162.81,-305.9 1162.87,-312.9"/>
</g>
<!-- n3 -->
<g id="node3" class="node">
<title>n3</title>
<polygon fill="none" stroke="black" points="54,-137.6 54,-152.51 38.18,-163.06 15.82,-163.06 0,-152.51 0,-137.6 15.82,-127.06 38.18,-127.06 54,-137.6"/>
<text xml:space="preserve" text-anchor="middle" x="27" y="-140.01" font-family="Times,serif" font-size="14.00">rst</text>
</g>
<!-- n3&#45;&gt;c13 -->
<g id="edge8" class="edge">
<title>n3:e&#45;&gt;c13:w</title>
<path fill="none" stroke="black" d="M54,-145.06C67.54,-145.06 70.76,-155.94 78.98,-161.55"/>
<polygon fill="black" stroke="black" points="77.97,-164.89 88.55,-164.38 79.95,-158.18 77.97,-164.89"/>
</g>
<!-- n3&#45;&gt;c14 -->
<g id="edge9" class="edge">
<title>n3:e&#45;&gt;c14:w</title>
<path fill="none" stroke="black" d="M54,-145.06C91.54,-145.06 57.33,-214.66 79.18,-229.89"/>
<polygon fill="black" stroke="black" points="77.97,-233.19 88.54,-232.41 79.8,-226.43 77.97,-233.19"/>
</g>
<!-- n3&#45;&gt;c15 -->
<g id="edge10" class="edge">
<title>n3:e&#45;&gt;c15:w</title>
<path fill="none" stroke="black" d="M54,-145.06C70.02,-145.06 73.98,-143.5 90,-143.06 314.91,-136.81 392.92,-46.7 596.25,-143.06 619.08,-153.88 610.15,-174.8 632.25,-187.06 708.37,-229.26 741.39,-214.5 823.8,-213.15"/>
<polygon fill="black" stroke="black" points="823.72,-216.65 833.69,-213.07 823.67,-209.65 823.72,-216.65"/>
</g>
<!-- n3&#45;&gt;c17 -->
<g id="edge11" class="edge">
<title>n3:e&#45;&gt;c17:w</title>
<path fill="none" stroke="black" d="M54,-145.06C81.38,-145.06 65.99,-108.22 90,-95.06 333.87,38.6 436.64,-60.06 714.73,-60.06 714.73,-60.06 714.73,-60.06 925.83,-60.06 1026.6,-60.06 1071.27,-63.87 1138.36,-139.06 1179.92,-185.63 1116.82,-272.63 1163.15,-283.65"/>
<polygon fill="black" stroke="black" points="1162.54,-287.1 1172.85,-284.65 1163.26,-280.14 1162.54,-287.1"/>
</g>
<!-- n4 -->
<g id="node4" class="node">
<title>n4</title>
<polygon fill="none" stroke="black" points="924.83,-400.06 840.63,-382.06 924.83,-364.06 1009.04,-382.06 924.83,-400.06"/>
<text xml:space="preserve" text-anchor="middle" x="924.83" y="-377.01" font-family="Times,serif" font-size="14.00">rx_baud_tick</text>
</g>
<!-- n4&#45;&gt;c17 -->
<g id="edge13" class="edge">
<title>n4:e&#45;&gt;c17:w</title>
<path fill="none" stroke="black" d="M1012.13,-382.06C1070.01,-382.06 1083.72,-369.15 1138.36,-350.06 1150.53,-345.8 1154.77,-339.03 1163.12,-335.74"/>
<polygon fill="black" stroke="black" points="1163.6,-339.21 1172.86,-334.06 1162.42,-332.31 1163.6,-339.21"/>
</g>
<!-- n5 -->
<g id="node5" class="node">
<title>n5</title>
<polygon fill="none" stroke="black" points="1476.59,-316.6 1476.59,-331.51 1452.14,-342.06 1417.57,-342.06 1393.13,-331.51 1393.13,-316.6 1417.57,-306.06 1452.14,-306.06 1476.59,-316.6"/>
<text xml:space="preserve" text-anchor="middle" x="1434.86" y="-319.01" font-family="Times,serif" font-size="14.00">rx_data</text>
</g>
<!-- n6 -->
<g id="node6" class="node">
<title>n6</title>
<polygon fill="none" stroke="black" points="1479.36,-262.6 1479.36,-277.51 1453.29,-288.06 1416.42,-288.06 1390.36,-277.51 1390.36,-262.6 1416.42,-252.06 1453.29,-252.06 1479.36,-262.6"/>
<text xml:space="preserve" text-anchor="middle" x="1434.86" y="-265.01" font-family="Times,serif" font-size="14.00">rx_done</text>
</g>
<!-- n7 -->
<g id="node7" class="node">
<title>n7</title>
<polygon fill="none" stroke="black" points="1094.41,-238.06 1067.41,-220.06 1094.41,-202.06 1121.41,-220.06 1094.41,-238.06"/>
<text xml:space="preserve" text-anchor="middle" x="1094.41" y="-215.01" font-family="Times,serif" font-size="14.00">tx</text>
</g>
<!-- n7&#45;&gt;c17 -->
<g id="edge17" class="edge">
<title>n7:e&#45;&gt;c17:w</title>
<path fill="none" stroke="black" d="M1123.22,-220.06C1147.85,-220.06 1146.64,-249.24 1163.6,-257.91"/>
<polygon fill="black" stroke="black" points="1162.36,-261.22 1172.88,-259.98 1163.88,-254.39 1162.36,-261.22"/>
</g>
<!-- n8 -->
<g id="node8" class="node">
<title>n8</title>
<polygon fill="none" stroke="black" points="715.73,-308.06 632.25,-290.06 715.73,-272.06 799.21,-290.06 715.73,-308.06"/>
<text xml:space="preserve" text-anchor="middle" x="715.73" y="-285.01" font-family="Times,serif" font-size="14.00">tx_baud_tick</text>
</g>
<!-- n8&#45;&gt;c15 -->
<g id="edge19" class="edge">
<title>n8:e&#45;&gt;c15:w</title>
<path fill="none" stroke="black" d="M799.21,-290.06C814.73,-290.06 815.7,-273.64 824.41,-265.95"/>
<polygon fill="black" stroke="black" points="825.56,-269.25 833.78,-262.57 823.19,-262.67 825.56,-269.25"/>
</g>
<!-- n9 -->
<g id="node9" class="node">
<title>n9</title>
<polygon fill="none" stroke="black" points="756.91,-152.6 756.91,-167.51 732.79,-178.06 698.67,-178.06 674.55,-167.51 674.55,-152.6 698.67,-142.06 732.79,-142.06 756.91,-152.6"/>
<text xml:space="preserve" text-anchor="middle" x="715.73" y="-155.01" font-family="Times,serif" font-size="14.00">tx_data</text>
</g>
<!-- n9&#45;&gt;c15 -->
<g id="edge20" class="edge">
<title>n9:e&#45;&gt;c15:w</title>
<path fill="none" stroke="black" stroke-width="3" d="M758.29,-160.06C790.62,-160.06 797.43,-182.47 823.97,-187.54"/>
<polygon fill="black" stroke="black" stroke-width="3" points="820.41,-190.73 830.69,-188.15 821.04,-183.76 820.41,-190.73"/>
</g>
<!-- n10 -->
<g id="node10" class="node">
<title>n10</title>
<polygon fill="none" stroke="black" points="1138.36,-158.6 1138.36,-173.51 1112.61,-184.06 1076.2,-184.06 1050.46,-173.51 1050.46,-158.6 1076.2,-148.06 1112.61,-148.06 1138.36,-158.6"/>
<text xml:space="preserve" text-anchor="middle" x="1094.41" y="-161.01" font-family="Times,serif" font-size="14.00">tx_done</text>
</g>
<!-- n11 -->
<g id="node11" class="node">
<title>n11</title>
<polygon fill="none" stroke="black" points="757.46,-98.6 757.46,-113.51 733.02,-124.06 698.44,-124.06 674,-113.51 674,-98.6 698.44,-88.06 733.02,-88.06 757.46,-98.6"/>
<text xml:space="preserve" text-anchor="middle" x="715.73" y="-101.01" font-family="Times,serif" font-size="14.00">tx_start</text>
</g>
<!-- n11&#45;&gt;c15 -->
<g id="edge3" class="edge">
<title>n11:e&#45;&gt;c15:w</title>
<path fill="none" stroke="black" d="M758.85,-106.06C780.43,-106.06 782.03,-119.99 799.21,-133.06 812.34,-143.04 814.04,-156.35 824.22,-161.69"/>
<polygon fill="black" stroke="black" points="823.22,-165.05 833.73,-163.74 824.69,-158.21 823.22,-165.05"/>
</g>
<!-- c13&#45;&gt;n8 -->
<g id="edge18" class="edge">
<title>c13:e&#45;&gt;n8:w</title>
<path fill="none" stroke="black" d="M596.25,-177.31C644.33,-177.31 590.64,-271.51 621.23,-287.7"/>
<polygon fill="black" stroke="black" points="620.26,-291.07 630.77,-289.74 621.72,-284.23 620.26,-291.07"/>
</g>
<!-- c14&#45;&gt;n4 -->
<g id="edge12" class="edge">
<title>c14:e&#45;&gt;n4:w</title>
<path fill="none" stroke="black" d="M596.25,-245.31C631.93,-245.31 605.11,-293.9 632.25,-317.06 702.08,-376.61 738.75,-381.72 826.05,-382.04"/>
<polygon fill="black" stroke="black" points="826.01,-385.54 836.02,-382.05 826.03,-378.54 826.01,-385.54"/>
</g>
<!-- c15&#45;&gt;n1 -->
<g id="edge1" class="edge">
<title>c15:e&#45;&gt;n1:w</title>
<path fill="none" stroke="black" d="M1014.46,-254.06C1033.24,-254.06 1037.93,-267.26 1051.43,-272.21"/>
<polygon fill="black" stroke="black" points="1050.53,-275.61 1060.97,-273.81 1051.69,-268.7 1050.53,-275.61"/>
</g>
<!-- c15&#45;&gt;n7 -->
<g id="edge16" class="edge">
<title>c15:e&#45;&gt;n7:w</title>
<path fill="none" stroke="black" d="M1014.46,-213.56C1033.07,-213.56 1040.07,-217.85 1054.33,-219.46"/>
<polygon fill="black" stroke="black" points="1053.91,-222.94 1064.08,-219.98 1054.28,-215.95 1053.91,-222.94"/>
</g>
<!-- c15&#45;&gt;n10 -->
<g id="edge2" class="edge">
<title>c15:e&#45;&gt;n10:w</title>
<path fill="none" stroke="black" d="M1014.46,-172.56C1026.14,-172.56 1031.23,-169.2 1039.2,-167.31"/>
<polygon fill="black" stroke="black" points="1039.4,-170.81 1048.95,-166.22 1038.63,-163.85 1039.4,-170.81"/>
</g>
<!-- c17&#45;&gt;n5 -->
<g id="edge14" class="edge">
<title>c17:e&#45;&gt;n5:w</title>
<path fill="none" stroke="black" stroke-width="3" d="M1354.36,-321.81C1366.45,-321.81 1371.91,-322.99 1380.38,-323.64"/>
<polygon fill="black" stroke="black" stroke-width="3" points="1377.08,-327.03 1387.2,-323.89 1377.33,-320.03 1377.08,-327.03"/>
</g>
<!-- c17&#45;&gt;n6 -->
<g id="edge15" class="edge">
<title>c17:e&#45;&gt;n6:w</title>
<path fill="none" stroke="black" d="M1354.36,-272.81C1365.76,-272.81 1371.04,-271.42 1378.9,-270.61"/>
<polygon fill="black" stroke="black" points="1379.03,-274.11 1388.84,-270.13 1378.69,-267.12 1379.03,-274.11"/>
</g>
</g>
</svg>
